<svg xmlns="http://www.w3.org/2000/svg" viewBox="0 0 40 40"><g fill="#fff"><path d="M12.5 38c-.5-.1-1-.5-1.3-1.1l-.2-.3V29H3.2l-.2-.3c-.3-.2-.6-.5-.8-.9-.2-.1-.2-.4-.2-3.5v-3.4h17V38h-6.5z"/><path d="M21.8 28.7v-7.5h1.9c1.9 0 2.2-.1 3.1-.4 2.3-.8 3.8-3.3 3.7-5.9-.2-2.7-1.8-4.6-4.3-5.2-.6-.1-2-.1-2.6 0-2.3.5-4 2.2-4.5 4.4-.1.3-.1.9-.1 2.3 0 1.6 0 1.8-.1 1.8h-7.4c-.1-.1 0-4 .1-4.5.5-4.4 3.3-8.3 7.3-10.2 2-1 3.8-1.4 6.1-1.4 2.2 0 4.1.4 5.9 1.3 3.7 1.8 6.2 5 7 9.1.9 4.8-.5 9.4-3.9 12.7-2 1.9-4.3 3-7 3.5-.6.1-1.1.1-2.9.2-1.9-.2-2.3-.2-2.3-.2z"/></g></svg>