<svg version="1.1" id="svg2" xmlns="http://www.w3.org/2000/svg" x="0" y="0" viewBox="0 0 545.2 546" xml:space="preserve"><style>.st0{fill:#fff}</style><g id="g3777"><path id="path3775" class="st0" d="M159 545.4c-8.2-2-15.4-7.9-19.7-16.1l-2.3-4.5-.5-58-.5-58-58.5-.5-58.5-.5-4.6-2.7c-5-2.9-9.8-7.9-12.6-13.1-1.6-3-1.8-7.3-1.8-54.2v-51h258v259l-48 .2c-26.4.1-49.4-.2-51-.6z"/><path id="path3761" class="st0" d="M300 404.2c-.3-.8-.4-26.6-.3-57.4l.3-56 28.5-.6c29.4-.6 32.6-1 46.3-5.8 34.7-12 57.9-49.5 55.3-89.1-2.7-40.8-26.8-70-64.9-78.6-9.6-2.2-29.8-2.2-39.4-.1-34.5 7.7-60.3 32.6-68.9 66.7-1.3 5-1.8 13-2.1 34.3-.4 24.9-.7 27.8-2.1 27.8-9.2.2-111.7-.2-112-.5-.9-.9-.1-60.6.9-68.5 8.3-66.1 50.5-125 111.1-154.9C282.9 6.5 310.6.1 345 0c33.7-.1 62.2 6 90 19.2C491.2 46 528.8 95 541 157.4c14.1 72.1-7.6 142.6-58.8 191.6-29.7 28.4-64.8 46-106.5 53.5-9.7 1.7-17.1 2.2-43.5 2.6-26.2.4-31.8.2-32.2-.9z"/></g></svg>